<svg width="280" height="249" viewBox="0 0 280 249" fill="none" xmlns="http://www.w3.org/2000/svg">
<rect x="1.79419" y="59.0833" width="242" height="244.399" rx="11.0983" transform="rotate(-13.5293 1.79419 59.0833)" fill="#303030"/>
<g clip-path="url(#clip0_2516_480)">
<rect x="16.2686" y="67.9429" width="218" height="133" rx="11.0983" transform="rotate(-13.5293 16.2686 67.9429)" fill="black"/>
<path d="M148.762 69.5864L111.863 78.4651C107.068 79.6189 104.116 84.4413 105.27 89.2364L114.149 126.136C115.302 130.931 120.125 133.883 124.92 132.729L161.819 123.85C166.614 122.696 169.566 117.874 168.412 113.079L159.534 76.1795C158.38 71.3845 153.557 68.4326 148.762 69.5864Z" fill="url(#paint0_linear_2516_480)" stroke="#8B5CF6" stroke-width="1.48833"/>
<path d="M139.645 89.0413L128.407 91.7454C126.545 92.1934 125.425 94.1763 125.906 96.1742L128.807 108.233C129.288 110.231 131.187 111.487 133.049 111.039L144.287 108.335C146.149 107.887 147.269 105.904 146.788 103.906L143.887 91.8477C143.406 89.8497 141.507 88.5933 139.645 89.0413Z" fill="#111827" stroke="#F97316" stroke-width="1.48833"/>
<path d="M128.687 101.354L128.518 100.653C129.148 100.501 129.555 100.264 129.74 99.9402C129.929 99.6157 129.949 99.1444 129.801 98.5264L129.365 96.7177C129.24 96.1976 129.181 95.7355 129.187 95.3313C129.197 94.9263 129.286 94.5722 129.452 94.2691C129.618 93.9659 129.875 93.7088 130.223 93.4975C130.571 93.2862 131.022 93.114 131.576 92.9807L131.842 94.0886C131.405 94.1937 131.077 94.3445 130.857 94.541C130.641 94.7365 130.514 94.9901 130.478 95.3019C130.444 95.609 130.48 95.983 130.586 96.4239L131.13 98.6849C131.201 98.9788 131.226 99.2559 131.205 99.5161C131.187 99.7754 131.096 100.017 130.93 100.24C130.765 100.463 130.501 100.668 130.139 100.855C129.782 101.04 129.297 101.207 128.687 101.354ZM135.057 107.451C134.503 107.584 134.024 107.636 133.618 107.606C133.212 107.576 132.866 107.464 132.58 107.27C132.294 107.075 132.054 106.8 131.861 106.444C131.672 106.087 131.514 105.649 131.389 105.129L130.954 103.32C130.805 102.702 130.573 102.291 130.257 102.088C129.945 101.884 129.474 101.858 128.845 102.009L128.676 101.309C129.286 101.162 129.793 101.089 130.197 101.092C130.604 101.094 130.932 101.156 131.181 101.28C131.43 101.403 131.621 101.577 131.754 101.8C131.891 102.022 131.995 102.28 132.066 102.574L132.61 104.835C132.716 105.276 132.854 105.625 133.024 105.883C133.197 106.141 133.425 106.307 133.706 106.383C133.992 106.462 134.354 106.448 134.791 106.343L135.057 107.451ZM128.845 102.009L128.518 100.653L129.852 100.332L130.179 101.688L128.845 102.009ZM143.509 97.7393L143.678 98.4402C143.049 98.5916 142.64 98.8296 142.451 99.1541C142.265 99.4778 142.247 99.9486 142.396 100.567L142.831 102.375C142.956 102.895 143.014 103.358 143.004 103.763C142.997 104.167 142.911 104.521 142.745 104.824C142.578 105.127 142.321 105.384 141.973 105.596C141.626 105.807 141.175 105.979 140.621 106.112L140.354 105.004C140.791 104.899 141.118 104.747 141.333 104.548C141.553 104.351 141.679 104.1 141.713 103.792C141.751 103.484 141.716 103.11 141.61 102.669L141.066 100.408C140.995 100.114 140.969 99.8376 140.986 99.5783C141.007 99.3181 141.1 99.0764 141.266 98.8532C141.432 98.6299 141.693 98.4254 142.051 98.2397C142.413 98.053 142.899 97.8862 143.509 97.7393ZM137.139 91.642C137.693 91.5087 138.173 91.457 138.579 91.4869C138.985 91.5169 139.33 91.629 139.616 91.8233C139.902 92.0176 140.14 92.2932 140.33 92.6503C140.523 93.0064 140.682 93.4445 140.807 93.9645L141.243 95.7733C141.391 96.3913 141.622 96.8022 141.934 97.0062C142.25 97.2092 142.722 97.235 143.352 97.0836L143.52 97.7845C142.91 97.9314 142.401 98.004 141.994 98.0023C141.591 97.9996 141.265 97.9366 141.016 97.8131C140.767 97.6896 140.574 97.5168 140.437 97.2947C140.303 97.0717 140.201 96.8132 140.13 96.5193L139.586 94.2583C139.48 93.8174 139.34 93.4683 139.167 93.2111C138.996 92.9492 138.768 92.7808 138.483 92.7058C138.202 92.63 137.843 92.6447 137.406 92.7499L137.139 91.642ZM143.352 97.0836L143.678 98.4402L142.344 98.7612L142.018 97.4046L143.352 97.0836Z" fill="#F97316"/>
<path d="M73.9153 117.977L109.662 109.376" stroke="#9CA3AF" stroke-width="1.48833"/>
<path d="M164.355 96.2156L200.101 87.6142" stroke="#9CA3AF" stroke-width="1.48833"/>
</g>
<rect x="16.8263" y="68.2843" width="217.075" height="132.075" rx="10.6358" transform="rotate(-13.5293 16.8263 68.2843)" stroke="#A9A9A9" stroke-width="0.924855"/>
<path d="M53.6729 219.395L51.1552 208.932L58.2057 207.235L58.6446 209.059L53.8063 210.224L54.4062 212.717L58.8818 211.64L59.3206 213.464L54.8451 214.541L55.4463 217.039L60.305 215.87L60.7438 217.694L53.6729 219.395ZM66.0239 216.586C65.22 216.779 64.4876 216.775 63.8267 216.574C63.1683 216.368 62.6107 215.998 62.1541 215.463C61.7009 214.927 61.3788 214.262 61.1878 213.469C60.9944 212.665 60.9797 211.922 61.1438 211.242C61.3104 210.556 61.6406 209.974 62.1342 209.495C62.6271 209.013 63.2703 208.676 64.0639 208.485C64.7485 208.32 65.3779 208.3 65.952 208.425C66.5262 208.55 67.0172 208.801 67.4251 209.179C67.833 209.556 68.1253 210.045 68.3018 210.643L66.248 211.138C66.0958 210.76 65.8667 210.482 65.5607 210.303C65.2573 210.12 64.9063 210.077 64.5078 210.173C64.1706 210.254 63.8981 210.417 63.6903 210.661C63.4851 210.902 63.3545 211.212 63.2985 211.593C63.2424 211.974 63.2738 212.412 63.3926 212.906C63.5131 213.406 63.6837 213.816 63.9043 214.134C64.1284 214.451 64.3886 214.671 64.6849 214.794C64.9812 214.918 65.2979 214.939 65.6351 214.858C65.8838 214.798 66.0946 214.693 66.2675 214.543C66.4439 214.393 66.5734 214.205 66.6562 213.98C66.7415 213.75 66.7713 213.492 66.7458 213.207L68.7997 212.713C68.9099 213.32 68.8734 213.888 68.6903 214.414C68.5098 214.937 68.1948 215.388 67.7454 215.766C67.2959 216.144 66.7221 216.418 66.0239 216.586ZM71.9701 210.193L73.0617 214.73L70.8853 215.254L68.3676 204.79L70.4827 204.281L71.4453 208.282L71.5373 208.26C71.6029 207.754 71.8018 207.322 72.1337 206.965C72.4649 206.604 72.9285 206.352 73.5246 206.209C74.0696 206.078 74.5734 206.082 75.0361 206.223C75.5013 206.36 75.8996 206.623 76.231 207.011C76.5649 207.396 76.8039 207.895 76.948 208.509L78.1503 213.506L75.9739 214.029L74.865 209.421C74.7521 208.936 74.5389 208.59 74.2255 208.38C73.9155 208.17 73.5391 208.118 73.0963 208.225C72.8 208.296 72.5529 208.422 72.355 208.603C72.1606 208.783 72.0277 209.01 71.9565 209.283C71.8878 209.552 71.8923 209.855 71.9701 210.193ZM83.4457 212.394C82.6521 212.584 81.9252 212.581 81.265 212.383C80.6075 212.181 80.0491 211.815 79.5898 211.284C79.1298 210.749 78.803 210.08 78.6096 209.277C78.4146 208.466 78.4008 207.72 78.5683 207.038C78.7349 206.353 79.0655 205.773 79.56 205.297C80.057 204.817 80.7024 204.482 81.496 204.291C82.2896 204.1 83.0152 204.105 83.6727 204.307C84.3329 204.505 84.893 204.871 85.3531 205.406C85.8123 205.936 86.1394 206.607 86.3345 207.418C86.5279 208.222 86.5413 208.966 86.3746 209.651C86.2072 210.333 85.8749 210.914 85.3778 211.394C84.8833 211.869 84.2393 212.203 83.4457 212.394ZM83.0502 210.705C83.4113 210.618 83.6881 210.444 83.8808 210.181C84.0726 209.915 84.1868 209.588 84.2234 209.201C84.2633 208.813 84.2284 208.391 84.1186 207.935C84.0088 207.478 83.8478 207.087 83.6357 206.759C83.4271 206.431 83.1768 206.192 82.885 206.043C82.5932 205.893 82.2668 205.862 81.9057 205.949C81.5413 206.036 81.2597 206.214 81.0611 206.482C80.8658 206.748 80.7482 207.076 80.7083 207.464C80.6717 207.851 80.7083 208.273 80.8182 208.729C80.928 209.185 81.0872 209.578 81.2959 209.906C81.508 210.233 81.7616 210.471 82.0568 210.62C82.3547 210.764 82.6858 210.793 83.0502 210.705Z" fill="#F2F2F2"/>
<path d="M227.547 170.701C227.808 170.638 228.053 170.525 228.27 170.367C228.487 170.209 228.671 170.01 228.811 169.782C228.951 169.553 229.044 169.299 229.086 169.034C229.128 168.769 229.117 168.499 229.054 168.238C228.992 167.977 228.878 167.732 228.72 167.515C228.563 167.298 228.364 167.114 228.135 166.974C227.906 166.834 227.652 166.741 227.388 166.699C227.123 166.657 226.852 166.668 226.592 166.731C226.065 166.857 225.611 167.188 225.328 167.65C225.045 168.112 224.958 168.667 225.084 169.193C225.211 169.72 225.542 170.174 226.003 170.457C226.465 170.74 227.02 170.827 227.547 170.701ZM223.862 177.827L223.944 178.168L234.152 175.711L234.07 175.371C233.765 174.101 233.612 173.465 233.248 173.039C232.928 172.665 232.497 172.401 232.018 172.287C231.473 172.156 230.838 172.309 229.567 172.615L226.618 173.324C225.348 173.63 224.713 173.783 224.287 174.147C223.912 174.467 223.649 174.898 223.534 175.377C223.403 175.922 223.556 176.557 223.862 177.827Z" stroke="#BABABA" stroke-linecap="round" stroke-linejoin="round"/>
<path d="M244.959 172.453C244.477 172.569 244.024 172.586 243.602 172.504C243.179 172.419 242.818 172.248 242.521 171.99C242.224 171.732 242.02 171.401 241.91 170.998L242.634 170.824C242.715 171.107 242.864 171.336 243.079 171.511C243.293 171.684 243.55 171.798 243.85 171.852C244.149 171.905 244.465 171.891 244.797 171.811C245.16 171.724 245.463 171.579 245.706 171.378C245.952 171.175 246.124 170.938 246.224 170.665C246.325 170.39 246.34 170.102 246.268 169.803C246.191 169.487 246.044 169.226 245.824 169.022C245.605 168.818 245.328 168.685 244.994 168.622C244.663 168.559 244.289 168.577 243.873 168.677L243.413 168.788L243.258 168.144L243.718 168.033C244.057 167.952 244.343 167.818 244.574 167.633C244.807 167.444 244.972 167.22 245.068 166.959C245.165 166.697 245.177 166.415 245.103 166.111C245.034 165.822 244.908 165.584 244.725 165.395C244.541 165.207 244.316 165.079 244.048 165.011C243.783 164.942 243.494 164.946 243.179 165.021C242.875 165.095 242.611 165.22 242.386 165.399C242.162 165.577 241.997 165.792 241.893 166.044C241.792 166.296 241.771 166.57 241.831 166.866L241.138 167.033C241.05 166.622 241.076 166.236 241.216 165.875C241.358 165.511 241.587 165.199 241.903 164.939C242.221 164.676 242.598 164.492 243.035 164.387C243.497 164.276 243.92 164.274 244.302 164.382C244.685 164.49 245.006 164.679 245.266 164.949C245.527 165.216 245.703 165.537 245.794 165.912C245.901 166.36 245.872 166.772 245.706 167.15C245.54 167.525 245.266 167.823 244.884 168.045L244.896 168.095C245.42 168.074 245.867 168.201 246.236 168.477C246.607 168.75 246.853 169.136 246.973 169.634C247.073 170.053 247.054 170.456 246.915 170.843C246.775 171.228 246.537 171.564 246.201 171.85C245.866 172.134 245.452 172.334 244.959 172.453ZM249.472 171.315C249.321 171.351 249.178 171.329 249.042 171.248C248.909 171.164 248.824 171.046 248.787 170.896C248.75 170.742 248.773 170.599 248.854 170.466C248.938 170.332 249.056 170.247 249.206 170.211C249.36 170.174 249.503 170.196 249.636 170.278C249.769 170.359 249.854 170.477 249.891 170.63C249.915 170.73 249.911 170.828 249.881 170.924C249.852 171.02 249.802 171.104 249.73 171.175C249.66 171.244 249.574 171.29 249.472 171.315ZM251.906 170.668L253.759 162.654L253.747 162.604L249.628 163.595L249.473 162.952L254.343 161.78L254.506 162.454L252.66 170.487L251.906 170.668ZM257.872 166.881L257.65 165.99L257.803 165.954L259.895 162.519L260.758 162.312L258.69 165.696L258.631 165.722L257.872 166.881ZM257.786 169.253L255.898 161.406L256.58 161.242L258.468 169.089L257.786 169.253ZM261.453 168.371L258.335 165.923L258.712 165.334L262.327 168.161L261.453 168.371Z" fill="#BABABA"/>
<path d="M59.1864 241.725L57.2982 233.877L61.8503 232.782L62.0052 233.426L58.1696 234.349L58.8805 237.303L62.4747 236.438L62.6296 237.082L59.0354 237.947L59.7481 240.909L63.6603 239.967L63.8152 240.611L59.1864 241.725ZM67.7799 239.787C67.2537 239.914 66.7635 239.892 66.3094 239.723C65.8578 239.554 65.4697 239.266 65.1451 238.86C64.8205 238.455 64.5878 237.959 64.447 237.374C64.305 236.784 64.2873 236.233 64.3938 235.721C64.5028 235.208 64.7201 234.775 65.0457 234.421C65.3707 234.065 65.7899 233.825 66.3034 233.701C66.6968 233.606 67.0716 233.597 67.4278 233.674C67.7834 233.748 68.0978 233.898 68.3711 234.124C68.6463 234.347 68.8547 234.634 68.9963 234.987L68.3066 235.153C68.1551 234.838 67.9145 234.596 67.5846 234.426C67.2566 234.254 66.8832 234.218 66.4642 234.319C66.0887 234.409 65.7812 234.591 65.5417 234.865C65.3016 235.136 65.1435 235.473 65.0673 235.875C64.993 236.274 65.013 236.711 65.1274 237.186C65.2423 237.664 65.4232 238.068 65.6701 238.397C65.9164 238.725 66.2075 238.957 66.5434 239.095C66.8818 239.233 67.2439 239.255 67.6297 239.162C67.8902 239.1 68.1161 238.994 68.3073 238.845C68.5005 238.693 68.6481 238.509 68.75 238.293C68.8545 238.076 68.9022 237.836 68.8931 237.573L69.5828 237.407C69.6172 237.775 69.5669 238.122 69.4321 238.449C69.2992 238.773 69.0922 239.052 68.811 239.288C68.5324 239.522 68.1887 239.689 67.7799 239.787ZM71.2546 234.93L72.1397 238.608L71.4577 238.772L69.5694 230.925L70.2515 230.761L70.9458 233.646L71.0071 233.631C71.0719 233.294 71.2268 233 71.4718 232.749C71.7194 232.498 72.0654 232.319 72.5099 232.212C72.9084 232.116 73.278 232.113 73.6188 232.204C73.9596 232.295 74.2527 232.48 74.4981 232.759C74.7435 233.038 74.9225 233.411 75.035 233.878L75.9524 237.691L75.2665 237.856L74.3592 234.085C74.2424 233.6 74.0152 233.251 73.6774 233.037C73.3415 232.821 72.945 232.768 72.4877 232.878C72.1735 232.953 71.9098 233.087 71.6965 233.279C71.4833 233.471 71.3352 233.709 71.2524 233.994C71.1715 234.275 71.1723 234.587 71.2546 234.93ZM80.0656 236.831C79.5572 236.953 79.0766 236.932 78.6237 236.768C78.1733 236.604 77.7836 236.321 77.4545 235.919C77.1248 235.514 76.888 235.013 76.7442 234.415C76.5991 233.813 76.5814 233.256 76.6911 232.746C76.8001 232.233 77.018 231.802 77.3449 231.454C77.6736 231.102 78.0922 230.864 78.6005 230.742C79.1089 230.62 79.5882 230.641 80.0386 230.805C80.489 230.97 80.879 231.255 81.2087 231.659C81.541 232.063 81.7797 232.566 81.9247 233.169C82.0686 233.767 82.0856 234.321 81.976 234.831C81.8657 235.338 81.6462 235.768 81.3174 236.12C80.9912 236.472 80.5739 236.708 80.0656 236.831ZM79.9153 236.206C80.324 236.108 80.6437 235.915 80.8744 235.627C81.1051 235.339 81.2493 234.995 81.307 234.594C81.3673 234.193 81.3446 233.773 81.2388 233.334C81.1331 232.895 80.9619 232.509 80.7252 232.177C80.4911 231.844 80.2056 231.6 79.8685 231.446C79.5315 231.292 79.1586 231.264 78.7499 231.363C78.3437 231.461 78.0243 231.655 77.7917 231.946C77.5616 232.237 77.4168 232.583 77.3571 232.987C77.3 233.39 77.3243 233.811 77.43 234.25C77.5358 234.69 77.7054 235.075 77.9389 235.405C78.175 235.734 78.4612 235.975 78.7976 236.127C79.134 236.278 79.5066 236.305 79.9153 236.206ZM86.5327 235.275C85.9835 235.407 85.4776 235.393 85.0151 235.234C84.5519 235.073 84.1558 234.791 83.8267 234.389C83.4995 233.984 83.2643 233.484 83.1211 232.889C82.9785 232.296 82.9605 231.744 83.067 231.232C83.1754 230.717 83.3911 230.283 83.7142 229.929C84.0392 229.573 84.4558 229.333 84.9642 229.211C85.2835 229.134 85.6054 229.119 85.93 229.165C86.254 229.209 86.5624 229.322 86.8552 229.506C87.1499 229.686 87.4099 229.941 87.6351 230.271C87.8598 230.598 88.0314 231.008 88.15 231.501L88.2311 231.838L83.633 232.944L83.4883 232.343L87.389 231.404C87.298 231.026 87.1397 230.705 86.9138 230.44C86.69 230.172 86.4215 229.983 86.1083 229.872C85.7976 229.76 85.4661 229.747 85.1135 229.832C84.7406 229.921 84.4363 230.1 84.2007 230.367C83.9651 230.635 83.8061 230.952 83.7239 231.317C83.6442 231.682 83.6498 232.059 83.7406 232.448L83.8273 232.808C83.9398 233.276 84.1186 233.665 84.3637 233.976C84.6108 234.285 84.9069 234.498 85.2518 234.618C85.5968 234.738 85.9737 234.748 86.3824 234.65C86.6608 234.583 86.8943 234.481 87.0829 234.344C87.274 234.206 87.4236 234.047 87.5316 233.867C87.6416 233.684 87.7124 233.495 87.7441 233.301L88.4424 233.356C88.4126 233.625 88.3207 233.889 88.1667 234.148C88.0153 234.406 87.803 234.635 87.5297 234.836C87.2584 235.034 86.9261 235.18 86.5327 235.275ZM93.2423 228.67L92.6601 228.997C92.5564 228.835 92.4312 228.696 92.2843 228.58C92.1375 228.464 91.9633 228.386 91.7616 228.345C91.5625 228.304 91.3301 228.315 91.0645 228.379C90.666 228.475 90.3617 228.649 90.1518 228.899C89.9418 229.15 89.8728 229.424 89.9447 229.723C90.0055 229.976 90.1419 230.161 90.3537 230.277C90.5674 230.391 90.868 230.449 91.2555 230.454L92.197 230.458C92.7189 230.459 93.1338 230.561 93.4417 230.762C93.7522 230.963 93.9548 231.261 94.0495 231.654C94.1294 231.986 94.1084 232.303 93.9866 232.606C93.8647 232.908 93.6568 233.173 93.363 233.4C93.071 233.624 92.7092 233.788 92.2775 233.892C91.7027 234.031 91.1978 234.016 90.7628 233.847C90.3271 233.677 89.9979 233.359 89.7752 232.893L90.3917 232.575C90.5602 232.904 90.7886 233.129 91.0768 233.249C91.3676 233.368 91.7148 233.379 92.1185 233.282C92.5706 233.173 92.9078 232.985 93.13 232.718C93.3516 232.449 93.4255 232.161 93.3518 231.854C93.2946 231.617 93.1675 231.437 92.9704 231.314C92.7727 231.188 92.5037 231.126 92.1633 231.127L91.1462 231.128C90.6058 231.129 90.1811 231.026 89.8719 230.819C89.5627 230.612 89.3608 230.312 89.2662 229.919C89.1881 229.594 89.2077 229.288 89.325 229.001C89.4416 228.71 89.6376 228.458 89.9128 228.243C90.1881 228.028 90.5238 227.873 90.9197 227.778C91.4587 227.648 91.9187 227.667 92.2995 227.835C92.6824 228 92.9966 228.278 93.2423 228.67ZM99.8623 225.711L100.005 226.305L97.1965 226.981L97.0536 226.387L99.8623 225.711ZM97.5918 224.766L98.2777 224.601L99.6635 230.36C99.7225 230.605 99.811 230.788 99.9291 230.908C100.047 231.026 100.18 231.098 100.33 231.124C100.479 231.147 100.63 231.141 100.783 231.104C100.872 231.082 100.948 231.059 101.009 231.033C101.07 231.005 101.123 230.979 101.169 230.954L101.463 231.536C101.402 231.578 101.326 231.62 101.234 231.664C101.142 231.711 101.025 231.751 100.882 231.785C100.632 231.846 100.377 231.849 100.118 231.795C99.8619 231.74 99.6335 231.622 99.4331 231.441C99.2327 231.259 99.0938 231.008 99.0163 230.686L97.5918 224.766ZM102.751 227.351L103.636 231.03L102.954 231.194L101.066 223.346L101.748 223.182L102.442 226.067L102.503 226.053C102.568 225.715 102.723 225.421 102.968 225.171C103.216 224.919 103.562 224.74 104.006 224.633C104.405 224.537 104.774 224.535 105.115 224.626C105.456 224.717 105.749 224.901 105.994 225.18C106.24 225.459 106.419 225.832 106.531 226.3L107.449 230.112L106.763 230.277L105.856 226.507C105.739 226.021 105.511 225.672 105.174 225.459C104.838 225.242 104.441 225.189 103.984 225.299C103.67 225.375 103.406 225.508 103.193 225.7C102.98 225.892 102.831 226.13 102.749 226.415C102.668 226.697 102.669 227.009 102.751 227.351ZM111.654 229.23C111.105 229.362 110.599 229.349 110.136 229.19C109.673 229.028 109.277 228.747 108.948 228.345C108.621 227.94 108.386 227.44 108.242 226.844C108.1 226.252 108.082 225.699 108.188 225.187C108.297 224.672 108.512 224.238 108.835 223.885C109.16 223.528 109.577 223.289 110.085 223.166C110.405 223.089 110.727 223.074 111.051 223.12C111.375 223.164 111.684 223.278 111.976 223.461C112.271 223.642 112.531 223.896 112.756 224.226C112.981 224.553 113.153 224.963 113.271 225.456L113.352 225.793L108.754 226.9L108.609 226.298L112.51 225.359C112.419 224.981 112.261 224.66 112.035 224.396C111.811 224.128 111.543 223.938 111.229 223.827C110.919 223.716 110.587 223.702 110.235 223.787C109.862 223.877 109.557 224.055 109.322 224.323C109.086 224.59 108.927 224.907 108.845 225.273C108.765 225.638 108.771 226.015 108.862 226.404L108.948 226.764C109.061 227.231 109.24 227.621 109.485 227.932C109.732 228.24 110.028 228.454 110.373 228.573C110.718 228.693 111.095 228.704 111.504 228.605C111.782 228.538 112.016 228.436 112.204 228.299C112.395 228.161 112.545 228.002 112.653 227.822C112.763 227.639 112.834 227.45 112.865 227.256L113.564 227.311C113.534 227.581 113.442 227.844 113.288 228.103C113.136 228.361 112.924 228.591 112.651 228.791C112.38 228.989 112.047 229.135 111.654 229.23ZM118.549 227.441L117.133 221.556L117.796 221.396L118.014 222.3L118.075 222.286C118.119 221.953 118.257 221.667 118.489 221.428C118.722 221.185 119.032 221.018 119.418 220.925C119.824 220.827 120.18 220.843 120.487 220.971C120.795 221.097 121.055 221.31 121.265 221.611L121.315 221.599C121.369 221.24 121.522 220.929 121.775 220.666C122.03 220.399 122.372 220.214 122.801 220.111C123.348 219.979 123.821 220.048 124.221 220.316C124.62 220.582 124.899 221.045 125.057 221.704L126.006 225.647L125.324 225.811L124.375 221.868C124.263 221.403 124.061 221.083 123.767 220.908C123.474 220.732 123.133 220.692 122.744 220.785C122.295 220.893 121.982 221.114 121.806 221.449C121.629 221.783 121.592 222.162 121.694 222.586L122.626 226.46L121.929 226.628L120.965 222.624C120.87 222.225 120.681 221.93 120.4 221.738C120.118 221.547 119.776 221.499 119.372 221.596C119.102 221.661 118.874 221.787 118.689 221.972C118.506 222.156 118.381 222.382 118.313 222.65C118.247 222.914 118.25 223.2 118.324 223.507L119.231 227.277L118.549 227.441ZM130.221 224.762C129.672 224.895 129.166 224.881 128.703 224.722C128.24 224.561 127.844 224.279 127.515 223.877C127.188 223.472 126.952 222.972 126.809 222.377C126.667 221.784 126.649 221.232 126.755 220.72C126.863 220.205 127.079 219.77 127.402 219.417C127.727 219.06 128.144 218.821 128.652 218.699C128.972 218.622 129.293 218.607 129.618 218.653C129.942 218.696 130.25 218.81 130.543 218.994C130.838 219.174 131.098 219.429 131.323 219.758C131.548 220.085 131.719 220.495 131.838 220.989L131.919 221.326L127.321 222.432L127.176 221.831L131.077 220.892C130.986 220.514 130.828 220.193 130.602 219.928C130.378 219.66 130.11 219.471 129.796 219.36C129.486 219.248 129.154 219.235 128.802 219.319C128.429 219.409 128.124 219.588 127.889 219.855C127.653 220.123 127.494 220.439 127.412 220.805C127.332 221.17 127.338 221.547 127.429 221.936L127.515 222.296C127.628 222.764 127.807 223.153 128.052 223.464C128.299 223.772 128.595 223.986 128.94 224.106C129.285 224.226 129.662 224.236 130.07 224.138C130.349 224.071 130.582 223.969 130.771 223.832C130.962 223.694 131.112 223.535 131.22 223.355C131.33 223.171 131.4 222.983 131.432 222.789L132.13 222.844C132.101 223.113 132.009 223.377 131.855 223.636C131.703 223.894 131.491 224.123 131.218 224.324C130.946 224.522 130.614 224.668 130.221 224.762ZM136.93 218.158L136.348 218.485C136.244 218.323 136.119 218.184 135.972 218.068C135.826 217.952 135.651 217.874 135.45 217.833C135.251 217.792 135.018 217.803 134.753 217.867C134.354 217.963 134.05 218.136 133.84 218.387C133.63 218.637 133.561 218.912 133.633 219.211C133.694 219.464 133.83 219.649 134.042 219.765C134.255 219.879 134.556 219.937 134.944 219.941L135.885 219.946C136.407 219.947 136.822 220.049 137.13 220.25C137.44 220.451 137.643 220.748 137.738 221.142C137.817 221.474 137.796 221.791 137.675 222.093C137.553 222.396 137.345 222.66 137.051 222.888C136.759 223.112 136.397 223.276 135.966 223.38C135.391 223.518 134.886 223.503 134.451 223.335C134.015 223.164 133.686 222.846 133.463 222.381L134.08 222.062C134.248 222.392 134.477 222.617 134.765 222.737C135.056 222.856 135.403 222.867 135.807 222.77C136.259 222.661 136.596 222.473 136.818 222.206C137.04 221.937 137.114 221.649 137.04 221.342C136.983 221.105 136.856 220.924 136.658 220.802C136.461 220.676 136.192 220.614 135.851 220.615L134.834 220.616C134.294 220.616 133.869 220.513 133.56 220.307C133.251 220.1 133.049 219.8 132.954 219.407C132.876 219.082 132.896 218.776 133.013 218.488C133.13 218.198 133.326 217.946 133.601 217.731C133.876 217.516 134.212 217.361 134.608 217.266C135.147 217.136 135.607 217.155 135.988 217.323C136.37 217.487 136.685 217.766 136.93 218.158ZM142.462 216.827L141.88 217.153C141.777 216.992 141.651 216.853 141.505 216.737C141.358 216.621 141.183 216.543 140.982 216.502C140.783 216.461 140.55 216.472 140.285 216.536C139.886 216.632 139.582 216.805 139.372 217.056C139.162 217.306 139.093 217.581 139.165 217.88C139.226 218.133 139.362 218.317 139.574 218.434C139.788 218.547 140.088 218.606 140.476 218.61L141.417 218.615C141.939 218.616 142.354 218.718 142.662 218.919C142.972 219.12 143.175 219.417 143.27 219.811C143.35 220.143 143.329 220.46 143.207 220.762C143.085 221.064 142.877 221.329 142.583 221.557C142.291 221.781 141.929 221.945 141.498 222.049C140.923 222.187 140.418 222.172 139.983 222.004C139.547 221.833 139.218 221.515 138.995 221.05L139.612 220.731C139.78 221.061 140.009 221.286 140.297 221.406C140.588 221.525 140.935 221.536 141.339 221.439C141.791 221.33 142.128 221.142 142.35 220.875C142.572 220.606 142.646 220.318 142.572 220.011C142.515 219.773 142.388 219.593 142.191 219.47C141.993 219.345 141.724 219.283 141.384 219.284L140.366 219.285C139.826 219.285 139.401 219.182 139.092 218.976C138.783 218.769 138.581 218.469 138.486 218.075C138.408 217.751 138.428 217.445 138.545 217.157C138.662 216.867 138.858 216.615 139.133 216.4C139.408 216.185 139.744 216.03 140.14 215.935C140.679 215.805 141.139 215.824 141.52 215.992C141.903 216.156 142.217 216.435 142.462 216.827ZM146.822 220.78C146.467 220.866 146.126 220.875 145.799 220.807C145.471 220.738 145.189 220.592 144.952 220.371C144.714 220.147 144.55 219.846 144.459 219.468C144.389 219.177 144.385 218.918 144.447 218.692C144.509 218.467 144.625 218.266 144.796 218.089C144.967 217.913 145.182 217.755 145.44 217.614C145.698 217.474 145.988 217.343 146.31 217.222C146.63 217.102 146.9 217 147.12 216.914C147.342 216.828 147.506 216.738 147.61 216.642C147.714 216.547 147.748 216.425 147.712 216.277L147.679 216.139C147.583 215.738 147.387 215.451 147.091 215.279C146.798 215.104 146.428 215.07 145.98 215.178C145.556 215.28 145.233 215.456 145.009 215.707C144.789 215.958 144.655 216.222 144.609 216.501L143.905 216.423C143.96 216.069 144.082 215.768 144.271 215.52C144.459 215.269 144.689 215.067 144.96 214.913C145.23 214.756 145.515 214.641 145.814 214.569C146.039 214.515 146.279 214.488 146.536 214.489C146.796 214.488 147.048 214.536 147.292 214.631C147.536 214.724 147.754 214.883 147.946 215.11C148.138 215.334 148.281 215.643 148.376 216.036L149.338 220.033L148.656 220.197L148.432 219.266L148.389 219.276C148.349 219.469 148.269 219.667 148.147 219.869C148.026 220.072 147.856 220.254 147.639 220.417C147.421 220.581 147.149 220.701 146.822 220.78ZM146.763 220.133C147.126 220.046 147.421 219.89 147.648 219.665C147.875 219.44 148.028 219.178 148.107 218.878C148.188 218.574 148.19 218.262 148.113 217.94L147.908 217.089C147.868 217.15 147.793 217.214 147.683 217.281C147.574 217.348 147.446 217.415 147.297 217.484C147.151 217.549 147.003 217.61 146.855 217.667C146.707 217.724 146.573 217.775 146.454 217.82C146.132 217.941 145.864 218.073 145.65 218.216C145.436 218.36 145.284 218.523 145.196 218.707C145.107 218.888 145.091 219.097 145.148 219.334C145.234 219.692 145.429 219.938 145.732 220.074C146.034 220.206 146.378 220.226 146.763 220.133ZM153.958 221.386C153.557 221.482 153.193 221.514 152.866 221.482C152.54 221.453 152.252 221.373 152.003 221.244C151.753 221.115 151.543 220.953 151.375 220.759L151.846 220.256C151.966 220.384 152.113 220.503 152.288 220.612C152.466 220.721 152.679 220.795 152.93 220.835C153.182 220.874 153.476 220.853 153.811 220.773C154.332 220.647 154.72 220.416 154.977 220.078C155.236 219.74 155.3 219.297 155.168 218.748L154.849 217.422L154.787 217.437C154.751 217.634 154.681 217.841 154.575 218.055C154.47 218.267 154.311 218.461 154.099 218.636C153.89 218.811 153.609 218.94 153.256 219.025C152.786 219.138 152.341 219.122 151.919 218.978C151.501 218.833 151.135 218.569 150.821 218.188C150.51 217.804 150.282 217.311 150.138 216.711C149.994 216.116 149.969 215.568 150.062 215.067C150.158 214.566 150.358 214.145 150.662 213.804C150.967 213.463 151.362 213.234 151.847 213.118C152.207 213.031 152.521 213.023 152.79 213.093C153.057 213.161 153.285 213.271 153.473 213.424C153.664 213.575 153.821 213.729 153.945 213.886L154.014 213.869L153.744 212.746L154.411 212.586L155.864 218.625C155.984 219.123 155.976 219.558 155.842 219.931C155.707 220.304 155.476 220.611 155.147 220.852C154.819 221.096 154.423 221.274 153.958 221.386ZM153.186 218.381C153.564 218.29 153.866 218.122 154.09 217.876C154.314 217.627 154.457 217.315 154.517 216.938C154.578 216.561 154.552 216.137 154.438 215.664C154.327 215.204 154.159 214.814 153.933 214.492C153.706 214.169 153.434 213.937 153.117 213.797C152.802 213.654 152.451 213.629 152.065 213.722C151.672 213.816 151.365 214.002 151.146 214.279C150.926 214.557 150.79 214.892 150.739 215.285C150.687 215.676 150.714 216.093 150.821 216.534C150.929 216.984 151.095 217.364 151.318 217.675C151.541 217.984 151.811 218.203 152.129 218.332C152.446 218.458 152.798 218.475 153.186 218.381ZM160.042 217.587C159.492 217.719 158.986 217.706 158.524 217.547C158.061 217.385 157.665 217.104 157.336 216.702C157.008 216.297 156.773 215.797 156.63 215.201C156.487 214.609 156.469 214.056 156.576 213.544C156.684 213.029 156.9 212.595 157.223 212.241C157.548 211.885 157.965 211.646 158.473 211.523C158.792 211.446 159.114 211.431 159.439 211.477C159.763 211.521 160.071 211.635 160.364 211.818C160.659 211.998 160.919 212.253 161.144 212.583C161.369 212.91 161.54 213.32 161.659 213.813L161.74 214.15L157.142 215.257L156.997 214.655L160.898 213.716C160.807 213.338 160.649 213.017 160.423 212.753C160.199 212.485 159.93 212.295 159.617 212.184C159.307 212.073 158.975 212.059 158.622 212.144C158.249 212.234 157.945 212.412 157.71 212.68C157.474 212.947 157.315 213.264 157.233 213.63C157.153 213.995 157.159 214.372 157.25 214.761L157.336 215.121C157.449 215.588 157.627 215.978 157.873 216.289C158.12 216.597 158.416 216.811 158.761 216.93C159.106 217.05 159.483 217.061 159.891 216.962C160.17 216.895 160.403 216.793 160.592 216.656C160.783 216.518 160.933 216.359 161.041 216.179C161.15 215.996 161.221 215.807 161.253 215.613L161.951 215.668C161.921 215.937 161.83 216.201 161.676 216.46C161.524 216.718 161.312 216.948 161.039 217.148C160.767 217.346 160.435 217.492 160.042 217.587ZM166.424 212.419C166.203 211.5 166.11 210.603 166.146 209.73C166.181 208.856 166.33 208.01 166.593 207.19L167.213 207.041C167.099 207.387 167.01 207.769 166.946 208.187C166.884 208.605 166.849 209.043 166.841 209.502C166.832 209.96 166.852 210.423 166.899 210.89C166.946 211.354 167.023 211.808 167.129 212.25C167.271 212.84 167.468 213.422 167.72 213.996C167.971 214.571 168.257 215.105 168.575 215.598C168.897 216.091 169.229 216.509 169.574 216.85L168.953 216.999C168.346 216.386 167.828 215.699 167.399 214.937C166.97 214.176 166.645 213.336 166.424 212.419ZM172.868 214.501C172.36 214.623 171.879 214.602 171.427 214.438C170.976 214.274 170.586 213.99 170.257 213.589C169.928 213.184 169.691 212.683 169.547 212.085C169.402 211.482 169.384 210.926 169.494 210.416C169.603 209.903 169.821 209.472 170.148 209.123C170.476 208.771 170.895 208.534 171.403 208.412C171.912 208.29 172.391 208.311 172.841 208.475C173.292 208.64 173.682 208.924 174.012 209.329C174.344 209.733 174.583 210.236 174.728 210.839C174.871 211.436 174.889 211.99 174.779 212.501C174.669 213.008 174.449 213.438 174.12 213.79C173.794 214.141 173.377 214.378 172.868 214.501ZM172.718 213.876C173.127 213.778 173.447 213.585 173.677 213.297C173.908 213.009 174.052 212.665 174.11 212.264C174.17 211.863 174.147 211.443 174.042 211.004C173.936 210.564 173.765 210.179 173.528 209.846C173.294 209.514 173.008 209.27 172.671 209.116C172.334 208.962 171.961 208.934 171.553 209.033C171.147 209.13 170.827 209.325 170.595 209.616C170.364 209.906 170.22 210.253 170.16 210.657C170.103 211.06 170.127 211.481 170.233 211.92C170.339 212.36 170.508 212.744 170.742 213.075C170.978 213.404 171.264 213.645 171.6 213.796C171.937 213.948 172.309 213.974 172.718 213.876ZM176.927 213.394L175.51 207.509L176.173 207.349L176.391 208.254L176.441 208.242C176.487 207.917 176.634 207.629 176.881 207.378C177.131 207.123 177.441 206.951 177.811 206.862C177.867 206.848 177.93 206.835 178 206.821C178.069 206.807 178.128 206.795 178.174 206.787L178.341 207.48C178.309 207.483 178.254 207.488 178.175 207.496C178.095 207.504 178.011 207.519 177.922 207.541C177.615 207.614 177.358 207.745 177.149 207.933C176.942 208.118 176.797 208.341 176.714 208.602C176.63 208.862 176.624 209.138 176.694 209.429L177.609 213.23L176.927 213.394ZM184.709 205.295L184.852 205.889L182.044 206.565L181.901 205.971L184.709 205.295ZM182.439 204.35L183.125 204.185L184.511 209.944C184.57 210.189 184.658 210.372 184.776 210.492C184.894 210.61 185.027 210.682 185.177 210.708C185.326 210.732 185.477 210.725 185.63 210.688C185.719 210.667 185.795 210.643 185.856 210.617C185.917 210.589 185.97 210.563 186.016 210.539L186.31 211.12C186.249 211.162 186.173 211.205 186.081 211.248C185.99 211.295 185.872 211.335 185.729 211.37C185.479 211.43 185.224 211.433 184.965 211.379C184.709 211.325 184.481 211.207 184.28 211.025C184.08 210.844 183.941 210.592 183.863 210.27L182.439 204.35ZM187.598 206.935L188.483 210.614L187.801 210.778L185.913 202.93L186.595 202.766L187.289 205.652L187.35 205.637C187.415 205.3 187.57 205.006 187.815 204.755C188.063 204.503 188.409 204.324 188.853 204.217C189.252 204.121 189.621 204.119 189.962 204.21C190.303 204.301 190.596 204.486 190.842 204.764C191.087 205.043 191.266 205.416 191.378 205.884L192.296 209.696L191.61 209.861L190.703 206.091C190.586 205.606 190.359 205.256 190.021 205.043C189.685 204.826 189.288 204.773 188.831 204.883C188.517 204.959 188.253 205.093 188.04 205.284C187.827 205.476 187.679 205.715 187.596 205.999C187.515 206.281 187.516 206.593 187.598 206.935ZM196.501 208.814C195.952 208.946 195.446 208.933 194.983 208.774C194.52 208.612 194.124 208.331 193.795 207.929C193.468 207.524 193.233 207.024 193.089 206.429C192.947 205.836 192.929 205.284 193.035 204.772C193.144 204.256 193.359 203.822 193.682 203.469C194.007 203.112 194.424 202.873 194.932 202.75C195.252 202.674 195.574 202.658 195.898 202.704C196.222 202.748 196.531 202.862 196.823 203.045C197.118 203.226 197.378 203.481 197.603 203.81C197.828 204.137 198 204.547 198.118 205.04L198.199 205.377L193.601 206.484L193.457 205.882L197.357 204.944C197.266 204.566 197.108 204.244 196.882 203.98C196.658 203.712 196.39 203.523 196.077 203.411C195.766 203.3 195.434 203.286 195.082 203.371C194.709 203.461 194.405 203.639 194.169 203.907C193.933 204.174 193.774 204.491 193.692 204.857C193.612 205.222 193.618 205.599 193.709 205.988L193.796 206.348C193.908 206.815 194.087 207.205 194.332 207.516C194.579 207.824 194.875 208.038 195.22 208.158C195.565 208.277 195.942 208.288 196.351 208.19C196.629 208.123 196.863 208.02 197.051 207.883C197.242 207.745 197.392 207.586 197.5 207.406C197.61 207.223 197.681 207.035 197.712 206.84L198.411 206.895C198.381 207.165 198.289 207.429 198.135 207.687C197.984 207.945 197.771 208.175 197.498 208.376C197.227 208.573 196.894 208.72 196.501 208.814ZM206.595 203.876L205.72 200.24L206.402 200.076L207.818 205.961L207.136 206.125L206.901 205.148L206.848 205.161C206.782 205.496 206.624 205.8 206.374 206.074C206.123 206.345 205.782 206.532 205.35 206.636C204.974 206.727 204.621 206.725 204.291 206.632C203.96 206.536 203.673 206.348 203.43 206.069C203.187 205.789 203.01 205.417 202.898 204.952L201.98 201.14L202.662 200.976L203.57 204.746C203.68 205.206 203.905 205.544 204.243 205.759C204.581 205.973 204.962 206.028 205.386 205.926C205.652 205.862 205.892 205.737 206.106 205.55C206.321 205.364 206.478 205.129 206.577 204.845C206.676 204.559 206.682 204.236 206.595 203.876ZM210.155 207.734L208.208 199.641L208.871 199.482L209.141 200.604L209.221 200.585C209.261 200.389 209.33 200.182 209.429 199.964C209.527 199.743 209.678 199.54 209.882 199.356C210.089 199.171 210.373 199.035 210.733 198.948C211.218 198.832 211.673 198.857 212.097 199.026C212.523 199.191 212.892 199.477 213.204 199.886C213.518 200.292 213.748 200.797 213.893 201.403C214.04 202.011 214.066 202.568 213.971 203.074C213.879 203.58 213.682 204.005 213.378 204.348C213.077 204.691 212.686 204.92 212.206 205.035C211.85 205.121 211.537 205.129 211.267 205.059C210.998 204.988 210.768 204.877 210.575 204.726C210.384 204.572 210.227 204.416 210.105 204.256L210.043 204.271L210.837 207.57L210.155 207.734ZM209.591 202.426C209.706 202.901 209.877 203.305 210.106 203.639C210.337 203.97 210.611 204.208 210.927 204.354C211.245 204.496 211.594 204.522 211.975 204.43C212.366 204.336 212.669 204.149 212.886 203.87C213.104 203.588 213.24 203.246 213.292 202.844C213.346 202.442 213.319 202.012 213.208 201.555C213.1 201.103 212.931 200.712 212.704 200.384C212.478 200.054 212.205 199.816 211.883 199.669C211.561 199.519 211.203 199.492 210.809 199.587C210.426 199.679 210.125 199.861 209.907 200.132C209.688 200.401 209.552 200.734 209.499 201.13C209.447 201.524 209.478 201.955 209.591 202.426ZM218.943 198.424L218.361 198.751C218.257 198.589 218.132 198.45 217.985 198.334C217.838 198.218 217.664 198.14 217.462 198.099C217.263 198.058 217.031 198.069 216.765 198.133C216.367 198.229 216.062 198.403 215.852 198.653C215.642 198.904 215.573 199.178 215.645 199.477C215.706 199.73 215.842 199.915 216.054 200.031C216.268 200.145 216.569 200.203 216.956 200.208L217.898 200.212C218.42 200.213 218.834 200.315 219.142 200.517C219.453 200.717 219.655 201.015 219.75 201.408C219.83 201.74 219.809 202.057 219.687 202.36C219.565 202.662 219.357 202.927 219.064 203.154C218.772 203.378 218.41 203.542 217.978 203.646C217.403 203.785 216.898 203.77 216.463 203.601C216.028 203.431 215.699 203.113 215.476 202.647L216.092 202.329C216.261 202.658 216.489 202.883 216.777 203.003C217.068 203.122 217.415 203.133 217.819 203.036C218.271 202.927 218.608 202.739 218.831 202.472C219.052 202.203 219.126 201.915 219.052 201.608C218.995 201.371 218.868 201.191 218.671 201.068C218.473 200.942 218.204 200.88 217.864 200.881L216.847 200.882C216.306 200.883 215.882 200.78 215.573 200.573C215.263 200.366 215.061 200.066 214.967 199.673C214.889 199.348 214.908 199.042 215.026 198.755C215.142 198.464 215.338 198.212 215.613 197.997C215.889 197.782 216.224 197.627 216.62 197.532C217.159 197.402 217.619 197.421 218 197.589C218.383 197.754 218.697 198.032 218.943 198.424ZM222.528 196.195L222.671 196.789L219.862 197.465L219.719 196.871L222.528 196.195ZM220.258 195.25L220.944 195.085L222.329 200.844C222.388 201.089 222.477 201.272 222.595 201.392C222.712 201.51 222.846 201.582 222.996 201.608C223.144 201.632 223.296 201.625 223.449 201.588C223.538 201.567 223.614 201.543 223.675 201.518C223.736 201.489 223.789 201.463 223.834 201.439L224.128 202.021C224.068 202.062 223.992 202.105 223.9 202.149C223.808 202.195 223.691 202.235 223.548 202.27C223.298 202.33 223.043 202.333 222.784 202.279C222.528 202.225 222.299 202.107 222.099 201.925C221.899 201.744 221.76 201.492 221.682 201.17L220.258 195.25ZM225.493 201.708L224.077 195.823L224.74 195.663L224.958 196.567L225.007 196.556C225.054 196.231 225.201 195.943 225.448 195.691C225.698 195.437 226.008 195.265 226.378 195.176C226.434 195.162 226.497 195.149 226.567 195.134C226.636 195.12 226.694 195.109 226.741 195.101L226.908 195.794C226.876 195.796 226.82 195.802 226.741 195.81C226.662 195.818 226.578 195.833 226.489 195.855C226.182 195.928 225.924 196.059 225.716 196.247C225.509 196.432 225.364 196.655 225.281 196.915C225.197 197.176 225.191 197.452 225.261 197.743L226.175 201.544L225.493 201.708ZM231.569 200.376C231.02 200.508 230.514 200.495 230.052 200.336C229.589 200.174 229.193 199.893 228.863 199.491C228.536 199.086 228.301 198.586 228.158 197.99C228.015 197.398 227.997 196.845 228.104 196.333C228.212 195.818 228.428 195.384 228.751 195.031C229.076 194.674 229.493 194.435 230.001 194.312C230.32 194.235 230.642 194.22 230.967 194.266C231.291 194.31 231.599 194.424 231.892 194.607C232.187 194.788 232.447 195.042 232.672 195.372C232.897 195.699 233.068 196.109 233.187 196.602L233.268 196.939L228.67 198.046L228.525 197.444L232.426 196.505C232.335 196.127 232.176 195.806 231.951 195.542C231.727 195.274 231.458 195.084 231.145 194.973C230.834 194.862 230.503 194.848 230.15 194.933C229.777 195.023 229.473 195.201 229.237 195.469C229.002 195.736 228.843 196.053 228.761 196.419C228.681 196.784 228.687 197.161 228.777 197.55L228.864 197.91C228.977 198.377 229.155 198.767 229.4 199.078C229.648 199.386 229.944 199.6 230.289 199.719C230.634 199.839 231.01 199.85 231.419 199.751C231.698 199.684 231.931 199.582 232.12 199.445C232.311 199.307 232.46 199.148 232.568 198.968C232.678 198.785 232.749 198.596 232.781 198.402L233.479 198.457C233.449 198.727 233.357 198.99 233.203 199.249C233.052 199.507 232.84 199.737 232.566 199.937C232.295 200.135 231.963 200.281 231.569 200.376ZM237.106 199.056C236.751 199.141 236.41 199.15 236.083 199.083C235.756 199.013 235.473 198.868 235.236 198.646C234.999 198.423 234.834 198.122 234.743 197.744C234.673 197.452 234.669 197.194 234.731 196.968C234.793 196.743 234.91 196.542 235.081 196.365C235.252 196.189 235.466 196.031 235.724 195.89C235.982 195.75 236.273 195.619 236.595 195.498C236.914 195.378 237.184 195.275 237.404 195.19C237.627 195.104 237.79 195.013 237.894 194.918C237.998 194.823 238.032 194.701 237.997 194.553L237.964 194.415C237.867 194.014 237.671 193.727 237.376 193.555C237.082 193.38 236.712 193.346 236.265 193.454C235.841 193.556 235.517 193.732 235.294 193.983C235.073 194.234 234.939 194.498 234.893 194.777L234.189 194.699C234.245 194.345 234.367 194.044 234.556 193.796C234.744 193.545 234.974 193.343 235.244 193.188C235.515 193.031 235.799 192.917 236.098 192.845C236.323 192.791 236.564 192.764 236.821 192.764C237.08 192.764 237.332 192.812 237.576 192.907C237.82 193 238.038 193.159 238.231 193.386C238.423 193.61 238.566 193.919 238.66 194.312L239.622 198.309L238.94 198.473L238.716 197.542L238.674 197.552C238.634 197.745 238.553 197.943 238.432 198.145C238.31 198.347 238.14 198.53 237.923 198.693C237.705 198.856 237.433 198.977 237.106 199.056ZM237.048 198.409C237.411 198.322 237.706 198.166 237.932 197.941C238.159 197.716 238.312 197.454 238.392 197.154C238.473 196.85 238.474 196.538 238.397 196.216L238.192 195.365C238.153 195.426 238.078 195.49 237.967 195.557C237.859 195.624 237.73 195.691 237.582 195.759C237.435 195.824 237.288 195.886 237.14 195.943C236.991 196 236.858 196.051 236.739 196.096C236.416 196.217 236.148 196.349 235.934 196.492C235.72 196.636 235.569 196.799 235.48 196.983C235.392 197.163 235.376 197.373 235.433 197.61C235.519 197.968 235.713 198.214 236.016 198.349C236.318 198.482 236.662 198.502 237.048 198.409ZM241.436 197.872L240.02 191.986L240.683 191.827L240.901 192.731L240.962 192.717C241.006 192.384 241.144 192.098 241.376 191.859C241.609 191.616 241.919 191.449 242.305 191.356C242.711 191.258 243.067 191.274 243.374 191.402C243.683 191.528 243.942 191.741 244.152 192.042L244.202 192.03C244.256 191.671 244.41 191.36 244.662 191.097C244.917 190.83 245.259 190.645 245.688 190.542C246.235 190.41 246.708 190.479 247.108 190.747C247.507 191.013 247.786 191.476 247.944 192.135L248.893 196.078L248.211 196.242L247.262 192.299C247.15 191.834 246.948 191.514 246.654 191.339C246.361 191.163 246.02 191.123 245.632 191.216C245.182 191.324 244.869 191.545 244.693 191.88C244.516 192.214 244.479 192.593 244.581 193.017L245.513 196.891L244.816 197.059L243.853 193.055C243.757 192.656 243.568 192.361 243.287 192.169C243.006 191.978 242.663 191.93 242.26 192.027C241.989 192.092 241.761 192.218 241.576 192.403C241.393 192.587 241.268 192.813 241.2 193.081C241.134 193.345 241.137 193.631 241.211 193.938L242.119 197.708L241.436 197.872ZM62.0935 254.397L60.6774 248.511L61.3632 248.346L62.7794 254.231L62.0935 254.397ZM60.7826 247.415C60.6421 247.449 60.5107 247.431 60.3883 247.36C60.2654 247.287 60.1876 247.183 60.155 247.048C60.1224 246.912 60.1446 246.785 60.2215 246.667C60.2977 246.546 60.4061 246.468 60.5466 246.434C60.6871 246.401 60.8188 246.42 60.9418 246.493C61.0642 246.564 61.1417 246.667 61.1742 246.802C61.2068 246.938 61.185 247.066 61.1087 247.187C61.0318 247.305 60.9231 247.382 60.7826 247.415ZM64.3802 249.955L65.2653 253.633L64.5832 253.797L63.1671 247.912L63.83 247.752L64.0522 248.676L64.1135 248.661C64.1789 248.326 64.3354 248.033 64.5829 247.782C64.8325 247.527 65.1731 247.348 65.6048 247.244C66.0007 247.149 66.3681 247.148 66.707 247.242C67.0477 247.333 67.3396 247.519 67.5824 247.798C67.8279 248.077 68.0065 248.449 68.1184 248.913L69.0358 252.726L68.3537 252.89L67.4465 249.12C67.3303 248.637 67.103 248.288 66.7646 248.072C66.4288 247.855 66.0348 247.801 65.5826 247.91C65.2735 247.985 65.0149 248.117 64.8068 248.308C64.5986 248.498 64.4544 248.736 64.3741 249.02C64.2958 249.301 64.2978 249.613 64.3802 249.955ZM71.363 254.501L69.4157 246.408L70.0786 246.249L70.3488 247.371L70.4292 247.352C70.4686 247.156 70.5376 246.949 70.6364 246.731C70.7346 246.51 70.8859 246.307 71.0901 246.123C71.297 245.938 71.5805 245.802 71.9407 245.716C72.426 245.599 72.8808 245.624 73.305 245.793C73.7312 245.958 74.1002 246.245 74.412 246.653C74.7258 247.059 74.9555 247.564 75.1012 248.17C75.2475 248.778 75.2734 249.335 75.1791 249.841C75.0873 250.347 74.8895 250.772 74.5857 251.115C74.2844 251.458 73.8936 251.687 73.4134 251.802C73.0583 251.888 72.7453 251.896 72.4745 251.826C72.2062 251.755 71.9755 251.644 71.7825 251.494C71.5914 251.34 71.4347 251.183 71.3125 251.023L71.2512 251.038L72.0451 254.337L71.363 254.501ZM70.7991 249.193C70.9135 249.668 71.0851 250.072 71.3141 250.406C71.5451 250.737 71.8186 250.975 72.1347 251.121C72.4527 251.263 72.802 251.289 73.1826 251.197C73.5735 251.103 73.8772 250.917 74.0938 250.637C74.3123 250.355 74.4476 250.013 74.4996 249.612C74.5541 249.209 74.5264 248.78 74.4163 248.322C74.3075 247.87 74.1393 247.48 73.9115 247.151C73.6862 246.821 73.4127 246.583 73.0909 246.436C72.7685 246.287 72.4106 246.259 72.0172 246.354C71.6341 246.446 71.3332 246.628 71.1148 246.899C70.8958 247.168 70.7596 247.501 70.7064 247.898C70.6551 248.291 70.686 248.723 70.7991 249.193ZM80.5005 247.588L79.6255 243.952L80.3076 243.787L81.7238 249.673L81.0417 249.837L80.8066 248.86L80.7529 248.873C80.6875 249.208 80.5297 249.512 80.2793 249.786C80.0284 250.057 79.6871 250.244 79.2554 250.348C78.8799 250.438 78.5268 250.437 78.1963 250.344C77.8651 250.248 77.5781 250.06 77.3352 249.781C77.0923 249.501 76.915 249.129 76.8031 248.664L75.8857 244.851L76.5677 244.687L77.475 248.458C77.5856 248.918 77.8102 249.255 78.1485 249.471C78.4863 249.685 78.8672 249.74 79.2913 249.638C79.557 249.574 79.797 249.449 80.0115 249.262C80.226 249.075 80.383 248.84 80.4824 248.557C80.5811 248.271 80.5872 247.948 80.5005 247.588ZM84.4315 242.795L84.5744 243.389L81.7657 244.065L81.6228 243.471L84.4315 242.795ZM82.161 241.85L82.8469 241.685L84.2327 247.444C84.2917 247.689 84.3802 247.872 84.4983 247.992C84.6158 248.11 84.7493 248.182 84.8989 248.208C85.0478 248.231 85.1989 248.225 85.3521 248.188C85.4415 248.166 85.517 248.143 85.5784 248.117C85.6391 248.089 85.6923 248.063 85.7377 248.038L86.0318 248.62C85.9715 248.662 85.8953 248.704 85.8031 248.748C85.7116 248.795 85.5943 248.835 85.4513 248.869C85.2009 248.93 84.9463 248.933 84.6874 248.879C84.4311 248.824 84.2027 248.706 84.0023 248.525C83.8019 248.343 83.6629 248.092 83.5855 247.77L82.161 241.85ZM88.2554 244.599C88.4767 245.519 88.5695 246.415 88.5337 247.289C88.4979 248.162 88.349 249.009 88.0868 249.828L87.4661 249.978C87.58 249.631 87.6678 249.249 87.7295 248.832C87.7938 248.414 87.8301 247.975 87.8387 247.517C87.8472 247.058 87.8277 246.595 87.7802 246.128C87.7327 245.661 87.6561 245.208 87.5504 244.769C87.4084 244.179 87.2115 243.596 86.9598 243.022C86.7081 242.447 86.4216 241.914 86.1003 241.421C85.7815 240.927 85.45 240.51 85.1057 240.168L85.7265 240.019C86.3335 240.632 86.8515 241.32 87.2807 242.081C87.7099 242.843 88.0348 243.682 88.2554 244.599Z" fill="#BABABA"/>
<rect x="164.484" y="235.93" width="113.197" height="22.3988" rx="3.69942" transform="rotate(-13.5293 164.484 235.93)" fill="#D4AF37"/>
<path d="M182.66 247.705L179.784 248.397L177.743 239.911L180.676 239.206C181.518 239.003 182.283 238.999 182.97 239.193C183.658 239.384 184.242 239.756 184.72 240.31C185.198 240.864 185.543 241.582 185.755 242.463C185.968 243.347 185.986 244.146 185.81 244.86C185.637 245.574 185.284 246.175 184.749 246.663C184.218 247.15 183.521 247.497 182.66 247.705ZM181.001 246.697L182.265 246.393C182.856 246.25 183.323 246.024 183.666 245.714C184.009 245.4 184.228 245.004 184.323 244.526C184.417 244.044 184.387 243.479 184.23 242.83C184.074 242.181 183.845 241.666 183.543 241.286C183.241 240.903 182.869 240.652 182.429 240.533C181.99 240.41 181.484 240.418 180.909 240.557L179.6 240.872L181.001 246.697ZM191.019 245.825C190.381 245.978 189.798 245.978 189.271 245.825C188.745 245.668 188.299 245.375 187.933 244.946C187.566 244.514 187.302 243.965 187.142 243.299C186.984 242.645 186.971 242.04 187.1 241.486C187.232 240.929 187.49 240.457 187.873 240.073C188.256 239.686 188.752 239.419 189.359 239.273C189.752 239.178 190.137 239.153 190.516 239.196C190.896 239.236 191.252 239.355 191.583 239.553C191.917 239.75 192.21 240.033 192.463 240.402C192.714 240.768 192.907 241.23 193.042 241.788L193.152 242.248L187.936 243.503L187.693 242.492L191.471 241.583C191.399 241.296 191.276 241.056 191.1 240.861C190.924 240.664 190.712 240.527 190.462 240.449C190.216 240.371 189.949 240.367 189.661 240.436C189.355 240.51 189.103 240.649 188.907 240.854C188.71 241.056 188.576 241.293 188.504 241.565C188.434 241.833 188.432 242.11 188.498 242.395L188.71 243.277C188.799 243.647 188.943 243.949 189.142 244.181C189.341 244.411 189.579 244.567 189.856 244.65C190.132 244.729 190.433 244.73 190.759 244.651C190.977 244.599 191.167 244.521 191.329 244.418C191.491 244.312 191.622 244.182 191.723 244.029C191.823 243.877 191.885 243.702 191.908 243.507L193.346 243.327C193.347 243.719 193.256 244.083 193.074 244.419C192.894 244.751 192.63 245.04 192.283 245.284C191.935 245.525 191.514 245.706 191.019 245.825ZM196.734 237.586L197.014 238.746L193.355 239.626L193.076 238.466L196.734 237.586ZM193.612 236.724L195.112 236.363L196.55 242.338C196.598 242.539 196.666 242.687 196.753 242.78C196.841 242.869 196.942 242.921 197.053 242.935C197.165 242.949 197.282 242.941 197.407 242.911C197.501 242.889 197.585 242.861 197.659 242.829C197.735 242.796 197.793 242.769 197.832 242.748L198.367 243.859C198.293 243.906 198.186 243.964 198.045 244.033C197.906 244.102 197.732 244.164 197.52 244.221C197.147 244.322 196.795 244.347 196.464 244.295C196.133 244.241 195.847 244.102 195.606 243.88C195.368 243.656 195.203 243.345 195.11 242.947L193.612 236.724ZM201.382 243.336C200.979 243.433 200.598 243.448 200.241 243.382C199.885 243.313 199.579 243.159 199.323 242.919C199.069 242.679 198.892 242.351 198.792 241.934C198.706 241.575 198.701 241.262 198.777 240.995C198.853 240.729 198.988 240.497 199.184 240.301C199.379 240.105 199.612 239.937 199.882 239.796C200.154 239.651 200.441 239.525 200.742 239.418C201.106 239.289 201.4 239.182 201.624 239.096C201.848 239.007 202.005 238.917 202.094 238.825C202.185 238.73 202.213 238.611 202.179 238.467L202.173 238.442C202.098 238.13 201.947 237.911 201.721 237.784C201.494 237.657 201.207 237.636 200.859 237.72C200.492 237.808 200.22 237.958 200.043 238.17C199.869 238.382 199.771 238.605 199.749 238.842L198.3 238.98C198.318 238.566 198.422 238.199 198.614 237.879C198.805 237.555 199.069 237.284 199.405 237.066C199.74 236.845 200.13 236.681 200.575 236.574C200.881 236.5 201.195 236.463 201.516 236.461C201.838 236.46 202.144 236.512 202.435 236.617C202.726 236.72 202.981 236.894 203.2 237.139C203.423 237.383 203.585 237.717 203.687 238.139L204.711 242.399L203.27 242.746L203.059 241.871L203.01 241.883C202.961 242.082 202.872 242.279 202.744 242.473C202.617 242.664 202.441 242.837 202.215 242.99C201.991 243.141 201.714 243.256 201.382 243.336ZM201.507 242.14C201.808 242.067 202.054 241.945 202.247 241.773C202.438 241.598 202.57 241.397 202.641 241.17C202.714 240.942 202.723 240.71 202.666 240.476L202.486 239.726C202.448 239.776 202.377 239.831 202.272 239.891C202.169 239.951 202.052 240.01 201.92 240.068C201.788 240.126 201.656 240.181 201.525 240.233C201.395 240.285 201.281 240.33 201.185 240.367C200.969 240.452 200.781 240.55 200.62 240.661C200.46 240.773 200.344 240.903 200.272 241.052C200.199 241.198 200.186 241.368 200.232 241.561C200.299 241.837 200.45 242.022 200.685 242.114C200.921 242.206 201.194 242.215 201.507 242.14ZM206.219 242.036L204.688 235.672L206.188 235.311L207.719 241.675L206.219 242.036ZM205.225 234.587C204.987 234.644 204.764 234.615 204.555 234.499C204.345 234.38 204.213 234.208 204.159 233.985C204.105 233.758 204.144 233.546 204.278 233.347C204.411 233.145 204.596 233.016 204.833 232.959C205.073 232.901 205.297 232.932 205.504 233.052C205.713 233.168 205.845 233.339 205.9 233.566C205.953 233.79 205.914 234.002 205.781 234.204C205.651 234.402 205.465 234.529 205.225 234.587ZM208.72 232.458L210.761 240.943L209.262 241.304L207.22 232.819L208.72 232.458ZM216.207 234.68L214.876 235.158C214.804 235.029 214.705 234.916 214.579 234.817C214.456 234.718 214.305 234.651 214.127 234.615C213.949 234.579 213.744 234.589 213.512 234.645C213.2 234.72 212.953 234.85 212.773 235.037C212.596 235.223 212.535 235.423 212.589 235.638C212.631 235.824 212.735 235.958 212.901 236.041C213.07 236.123 213.325 236.162 213.666 236.159L214.807 236.13C215.44 236.115 215.937 236.213 216.298 236.424C216.661 236.635 216.899 236.968 217.012 237.423C217.105 237.824 217.073 238.206 216.915 238.568C216.758 238.927 216.497 239.241 216.129 239.511C215.761 239.781 215.312 239.979 214.782 240.107C214.003 240.294 213.337 240.282 212.784 240.071C212.229 239.856 211.836 239.467 211.604 238.904L213.033 238.411C213.168 238.682 213.361 238.865 213.612 238.96C213.863 239.054 214.161 239.06 214.506 238.977C214.862 238.891 215.13 238.749 215.311 238.551C215.494 238.352 215.559 238.145 215.507 237.929C215.463 237.747 215.357 237.613 215.187 237.529C215.021 237.443 214.783 237.404 214.475 237.411L213.335 237.444C212.694 237.464 212.191 237.358 211.826 237.128C211.46 236.894 211.222 236.545 211.113 236.081C211.016 235.689 211.041 235.324 211.187 234.985C211.336 234.642 211.584 234.346 211.933 234.095C212.284 233.841 212.714 233.653 213.222 233.531C213.968 233.351 214.593 233.369 215.097 233.584C215.605 233.798 215.974 234.163 216.207 234.68ZM224.166 237.849C223.586 237.988 223.062 238.003 222.595 237.894C222.127 237.784 221.737 237.579 221.425 237.277C221.115 236.972 220.906 236.594 220.797 236.144C220.716 235.804 220.712 235.486 220.787 235.191C220.865 234.894 221 234.605 221.192 234.322C221.387 234.038 221.62 233.747 221.893 233.447L223.151 232.062C223.337 231.865 223.468 231.673 223.542 231.486C223.62 231.298 223.633 231.096 223.581 230.881C223.537 230.698 223.418 230.544 223.224 230.418C223.033 230.292 222.804 230.261 222.536 230.326C222.356 230.369 222.208 230.45 222.09 230.569C221.975 230.684 221.895 230.819 221.85 230.973C221.808 231.126 221.805 231.279 221.842 231.43C221.886 231.616 221.983 231.791 222.131 231.957C222.281 232.122 222.464 232.287 222.679 232.452C222.897 232.616 223.129 232.789 223.374 232.973L228.478 236.68L226.854 237.071L222.637 234.079C222.322 233.851 222.016 233.625 221.72 233.401C221.426 233.177 221.17 232.932 220.951 232.666C220.734 232.397 220.584 232.085 220.499 231.732C220.402 231.331 220.409 230.951 220.518 230.592C220.627 230.23 220.825 229.918 221.112 229.656C221.403 229.393 221.771 229.208 222.219 229.1C222.666 228.992 223.072 228.988 223.435 229.088C223.797 229.188 224.101 229.363 224.346 229.614C224.59 229.865 224.754 230.163 224.837 230.508C224.933 230.909 224.92 231.292 224.798 231.657C224.675 232.02 224.467 232.372 224.176 232.714L222.762 234.382C222.53 234.654 222.378 234.91 222.307 235.149C222.235 235.386 222.217 235.577 222.252 235.723C222.306 235.947 222.412 236.137 222.569 236.292C222.726 236.447 222.92 236.555 223.151 236.616C223.384 236.674 223.639 236.67 223.915 236.603C224.219 236.53 224.502 236.39 224.765 236.184C225.027 235.975 225.249 235.714 225.431 235.401C225.613 235.089 225.733 234.738 225.792 234.35C225.85 233.959 225.827 233.547 225.722 233.113L227.011 232.803C227.14 233.339 227.193 233.82 227.17 234.247C227.146 234.67 227.073 235.041 226.951 235.36C226.828 235.676 226.682 235.94 226.511 236.154C226.456 236.217 226.404 236.279 226.354 236.341C226.305 236.402 226.253 236.464 226.198 236.527C225.964 236.87 225.663 237.153 225.293 237.376C224.926 237.599 224.55 237.756 224.166 237.849ZM235.037 235.233C234.401 235.386 233.822 235.378 233.3 235.209C232.779 235.039 232.337 234.737 231.973 234.305C231.611 233.869 231.353 233.329 231.198 232.686C231.042 232.039 231.029 231.439 231.159 230.885C231.288 230.328 231.546 229.857 231.932 229.471C232.321 229.083 232.826 228.814 233.447 228.664C233.964 228.54 234.444 228.525 234.888 228.62C235.333 228.712 235.716 228.901 236.037 229.189C236.357 229.475 236.589 229.843 236.732 230.293L235.299 230.638C235.167 230.346 234.967 230.123 234.7 229.971C234.435 229.816 234.121 229.782 233.759 229.869C233.453 229.943 233.203 230.09 233.011 230.312C232.818 230.531 232.694 230.809 232.638 231.147C232.585 231.484 232.609 231.867 232.712 232.295C232.817 232.729 232.97 233.086 233.172 233.368C233.374 233.646 233.609 233.843 233.879 233.956C234.151 234.066 234.443 234.083 234.755 234.008C234.976 233.955 235.164 233.866 235.318 233.741C235.474 233.613 235.592 233.455 235.672 233.266C235.752 233.077 235.787 232.863 235.776 232.623L237.21 232.278C237.282 232.737 237.246 233.168 237.1 233.571C236.954 233.971 236.707 234.317 236.359 234.608C236.011 234.897 235.57 235.105 235.037 235.233ZM241.77 233.613C241.149 233.763 240.577 233.755 240.056 233.592C239.534 233.428 239.089 233.13 238.719 232.699C238.352 232.267 238.09 231.723 237.931 231.065C237.773 230.408 237.759 229.802 237.889 229.248C238.021 228.693 238.282 228.224 238.672 227.841C239.062 227.458 239.568 227.192 240.189 227.042C240.811 226.892 241.382 226.9 241.904 227.063C242.425 227.227 242.87 227.526 243.237 227.961C243.608 228.395 243.872 228.941 244.03 229.598C244.188 230.255 244.201 230.86 244.068 231.412C243.938 231.964 243.677 232.431 243.287 232.814C242.898 233.197 242.392 233.463 241.77 233.613ZM241.49 232.409C241.827 232.328 242.086 232.168 242.268 231.929C242.449 231.686 242.557 231.394 242.592 231.053C242.629 230.711 242.602 230.346 242.509 229.96C242.415 229.57 242.274 229.232 242.085 228.944C241.898 228.653 241.668 228.441 241.397 228.307C241.125 228.174 240.821 228.148 240.484 228.229C240.138 228.312 239.874 228.475 239.69 228.718C239.508 228.961 239.399 229.254 239.363 229.599C239.328 229.94 239.357 230.306 239.451 230.695C239.544 231.082 239.684 231.42 239.87 231.708C240.059 231.995 240.289 232.206 240.561 232.339C240.835 232.469 241.144 232.493 241.49 232.409ZM246.665 228.359L247.563 232.088L246.063 232.449L244.532 226.085L245.965 225.74L246.225 226.821L246.3 226.803C246.36 226.412 246.526 226.073 246.796 225.786C247.068 225.498 247.442 225.297 247.917 225.183C248.356 225.077 248.762 225.079 249.133 225.188C249.507 225.297 249.826 225.508 250.091 225.821C250.359 226.133 250.553 226.544 250.673 227.053L251.648 231.105L250.148 231.466L249.229 227.646C249.126 227.22 248.936 226.914 248.657 226.727C248.381 226.539 248.05 226.492 247.663 226.585C247.401 226.648 247.181 226.762 247.005 226.927C246.83 227.089 246.711 227.292 246.647 227.535C246.585 227.778 246.592 228.052 246.665 228.359ZM254.864 223.599L255.144 224.759L251.382 225.664L251.102 224.504L254.864 223.599ZM253.574 230.641L251.898 223.677C251.795 223.249 251.798 222.871 251.906 222.544C252.017 222.216 252.207 221.946 252.474 221.732C252.741 221.519 253.058 221.368 253.426 221.28C253.685 221.217 253.921 221.183 254.132 221.176C254.344 221.168 254.502 221.17 254.607 221.18L254.588 222.412C254.519 222.408 254.435 222.408 254.333 222.411C254.231 222.413 254.121 222.427 254.002 222.456C253.723 222.523 253.542 222.638 253.459 222.802C253.377 222.961 253.366 223.166 253.426 223.414L255.078 230.279L253.574 230.641ZM257.57 229.68L256.039 223.316L257.539 222.955L259.07 229.319L257.57 229.68ZM256.576 222.231C256.338 222.288 256.115 222.259 255.906 222.143C255.696 222.024 255.564 221.852 255.51 221.629C255.456 221.402 255.495 221.19 255.629 220.991C255.761 220.789 255.946 220.66 256.184 220.603C256.424 220.545 256.648 220.576 256.855 220.696C257.064 220.812 257.196 220.983 257.25 221.21C257.304 221.434 257.265 221.646 257.132 221.848C257.001 222.046 256.816 222.173 256.576 222.231ZM263.986 230.801C263.447 230.93 262.967 230.969 262.545 230.915C262.124 230.865 261.767 230.746 261.474 230.559C261.18 230.373 260.952 230.143 260.79 229.869L262.062 229.217C262.153 229.327 262.271 229.428 262.416 229.522C262.562 229.618 262.743 229.683 262.958 229.716C263.177 229.751 263.437 229.732 263.738 229.66C264.163 229.557 264.49 229.369 264.719 229.095C264.949 228.823 265.008 228.453 264.895 227.983L264.605 226.777L264.53 226.795C264.49 226.969 264.415 227.155 264.305 227.354C264.198 227.552 264.036 227.735 263.819 227.904C263.606 228.073 263.317 228.201 262.952 228.288C262.463 228.406 261.992 228.398 261.539 228.265C261.088 228.128 260.691 227.858 260.345 227.456C260.002 227.051 259.748 226.501 259.581 225.808C259.413 225.109 259.387 224.492 259.503 223.955C259.622 223.415 259.85 222.973 260.188 222.629C260.525 222.282 260.938 222.049 261.427 221.932C261.8 221.842 262.122 221.832 262.392 221.901C262.665 221.967 262.895 222.071 263.081 222.213C263.267 222.353 263.415 222.491 263.527 222.627L263.61 222.607L263.357 221.555L264.836 221.199L266.392 227.667C266.523 228.211 266.501 228.692 266.328 229.111C266.154 229.53 265.863 229.882 265.455 230.167C265.048 230.452 264.558 230.663 263.986 230.801ZM263.087 227.011C263.405 226.935 263.657 226.792 263.844 226.584C264.03 226.375 264.146 226.112 264.193 225.794C264.239 225.476 264.213 225.114 264.115 224.708C264.019 224.308 263.877 223.971 263.688 223.698C263.503 223.424 263.278 223.231 263.014 223.119C262.753 223.004 262.46 222.985 262.137 223.063C261.803 223.143 261.545 223.297 261.363 223.525C261.181 223.753 261.07 224.032 261.03 224.363C260.989 224.692 261.015 225.048 261.108 225.432C261.201 225.821 261.34 226.149 261.524 226.414C261.709 226.676 261.934 226.862 262.197 226.971C262.462 227.077 262.759 227.09 263.087 227.011Z" fill="white"/>
<rect y="58.3467" width="249.406" height="264.164" transform="rotate(-13.5293 0 58.3467)" fill="url(#paint1_radial_2516_480)"/>
<defs>
<linearGradient id="paint0_linear_2516_480" x1="103.181" y1="80.5542" x2="170.502" y2="121.761" gradientUnits="userSpaceOnUse">
<stop stop-color="#111827"/>
<stop offset="1" stop-color="#020617"/>
</linearGradient>
<radialGradient id="paint1_radial_2516_480" cx="0" cy="0" r="1" gradientUnits="userSpaceOnUse" gradientTransform="translate(124.703 168.55) rotate(90) scale(106.962 218.711)">
<stop stop-color="#222222" stop-opacity="0.1"/>
<stop offset="0.5" stop-color="#242321" stop-opacity="0.5"/>
<stop offset="1" stop-color="#262320"/>
</radialGradient>
<clipPath id="clip0_2516_480">
<rect x="16.2686" y="67.9429" width="218" height="133" rx="11.0983" transform="rotate(-13.5293 16.2686 67.9429)" fill="white"/>
</clipPath>
</defs>
</svg>
