<svg width="178" height="95" viewBox="0 0 178 95" fill="none" xmlns="http://www.w3.org/2000/svg">
<path d="M108.197 19.5938H70.2444C65.3125 19.5938 61.3145 23.5918 61.3145 28.5237V66.4762C61.3145 71.4081 65.3125 75.4062 70.2444 75.4062H108.197C113.129 75.4062 117.127 71.4081 117.127 66.4762V28.5237C117.127 23.5918 113.129 19.5938 108.197 19.5938Z" fill="url(#paint0_linear_2516_295)" stroke="#FF9145" stroke-width="1.48833"/>
<path d="M96.8573 34.9675H80.9834C78.3533 34.9675 76.2212 37.2553 76.2212 40.0774V57.1104C76.2212 59.9325 78.3533 62.2203 80.9834 62.2203H96.8573C99.4874 62.2203 101.619 59.9325 101.619 57.1104V40.0774C101.619 37.2553 99.4874 34.9675 96.8573 34.9675Z" fill="#111827" stroke="#F97316" stroke-width="1.48833"/>
<path d="M81.2599 48.5848V47.8639C81.9072 47.8639 82.3587 47.7283 82.6145 47.457C82.8742 47.1857 83.004 46.7322 83.004 46.0965V44.2361C83.004 43.7013 83.0544 43.2381 83.1552 42.8466C83.2599 42.4552 83.4285 42.1315 83.661 41.8757C83.8936 41.6199 84.2036 41.43 84.5912 41.306C84.9788 41.1819 85.4575 41.1199 86.0272 41.1199V42.2594C85.5776 42.2594 85.223 42.3292 84.9633 42.4687C84.7075 42.6083 84.5253 42.8253 84.4168 43.1199C84.3122 43.4106 84.2598 43.7827 84.2598 44.2361V46.5616C84.2598 46.864 84.2191 47.1392 84.1377 47.3872C84.0602 47.6353 83.9149 47.8484 83.7017 48.0267C83.4885 48.205 83.1843 48.3426 82.7889 48.4395C82.3975 48.5364 81.8878 48.5848 81.2599 48.5848ZM86.0272 56.0033C85.4575 56.0033 84.9788 55.9412 84.5912 55.8172C84.2036 55.6932 83.8936 55.5033 83.661 55.2475C83.4285 54.9917 83.2599 54.668 83.1552 54.2766C83.0544 53.8851 83.004 53.4219 83.004 52.8871V51.0266C83.004 50.391 82.8742 49.9375 82.6145 49.6662C82.3587 49.3949 81.9072 49.2592 81.2599 49.2592V48.5383C81.8878 48.5383 82.3975 48.5868 82.7889 48.6837C83.1843 48.7806 83.4885 48.9182 83.7017 49.0965C83.9149 49.2748 84.0602 49.4879 84.1377 49.736C84.2191 49.984 84.2598 50.2592 84.2598 50.5615V52.8871C84.2598 53.3405 84.3122 53.7126 84.4168 54.0033C84.5253 54.294 84.7075 54.5091 84.9633 54.6486C85.223 54.792 85.5776 54.8638 86.0272 54.8638V56.0033ZM81.2599 49.2592V47.8639H82.632V49.2592H81.2599ZM96.5168 48.5383V49.2592C95.8695 49.2592 95.416 49.3949 95.1563 49.6662C94.9005 49.9375 94.7726 50.391 94.7726 51.0266V52.8871C94.7726 53.4219 94.7203 53.8851 94.6157 54.2766C94.5149 54.668 94.3482 54.9917 94.1157 55.2475C93.8831 55.5033 93.5731 55.6932 93.1855 55.8172C92.7979 55.9412 92.3192 56.0033 91.7495 56.0033V54.8638C92.1991 54.8638 92.5518 54.792 92.8076 54.6486C93.0673 54.5091 93.2494 54.294 93.3541 54.0033C93.4626 53.7126 93.5169 53.3405 93.5169 52.8871V50.5615C93.5169 50.2592 93.5556 49.984 93.6331 49.736C93.7145 49.4879 93.8618 49.2748 94.075 49.0965C94.2881 48.9182 94.5905 48.7806 94.9819 48.6837C95.3773 48.5868 95.8889 48.5383 96.5168 48.5383ZM91.7495 41.1199C92.3192 41.1199 92.7979 41.1819 93.1855 41.306C93.5731 41.43 93.8831 41.6199 94.1157 41.8757C94.3482 42.1315 94.5149 42.4552 94.6157 42.8466C94.7203 43.2381 94.7726 43.7013 94.7726 44.2361V46.0965C94.7726 46.7322 94.9005 47.1857 95.1563 47.457C95.416 47.7283 95.8695 47.8639 96.5168 47.8639V48.5848C95.8889 48.5848 95.3773 48.5364 94.9819 48.4395C94.5905 48.3426 94.2881 48.205 94.075 48.0267C93.8618 47.8484 93.7145 47.6353 93.6331 47.3872C93.5556 47.1392 93.5169 46.864 93.5169 46.5616V44.2361C93.5169 43.7827 93.4626 43.4106 93.3541 43.1199C93.2494 42.8253 93.0673 42.6083 92.8076 42.4687C92.5518 42.3292 92.1991 42.2594 91.7495 42.2594V41.1199ZM96.5168 47.8639V49.2592H95.1447V47.8639H96.5168Z" fill="#F97316"/>
<path d="M24.106 47.4998H60.873" stroke="#9CA3AF" stroke-width="1.48833"/>
<path d="M117.127 47.4998H153.894" stroke="#9CA3AF" stroke-width="1.48833"/>
<defs>
<linearGradient id="paint0_linear_2516_295" x1="61.3145" y1="19.5938" x2="117.127" y2="75.4062" gradientUnits="userSpaceOnUse">
<stop stop-color="#111827"/>
<stop offset="1" stop-color="#020617"/>
</linearGradient>
</defs>
</svg>
