<svg width="540" height="188" viewBox="0 0 540 188" fill="none" xmlns="http://www.w3.org/2000/svg">
<rect width="75" height="75" rx="8" fill="#232323"/>
<rect x="1" y="1" width="73" height="73" rx="7" stroke="#FFC300" stroke-opacity="0.3" stroke-width="2"/>
<rect x="167.5" width="75" height="75" rx="8" fill="#232323"/>
<rect x="168.5" y="1" width="73" height="73" rx="7" stroke="#FFC300" stroke-opacity="0.3" stroke-width="2"/>
<rect x="465" y="113" width="75" height="75" rx="8" fill="#232323"/>
<rect x="466" y="114" width="73" height="73" rx="7" stroke="#FFC300" stroke-opacity="0.3" stroke-width="2"/>
<rect x="271" y="113" width="75" height="75" rx="8" fill="#232323"/>
<rect x="272" y="114" width="73" height="73" rx="7" stroke="#FFC300" stroke-opacity="0.3" stroke-width="2"/>
<path d="M69.6667 35C69.6667 37.9455 72.0545 40.3333 75 40.3333C77.9455 40.3333 80.3333 37.9455 80.3333 35C80.3333 32.0545 77.9455 29.6667 75 29.6667C72.0545 29.6667 69.6667 32.0545 69.6667 35ZM167 35L157 29.2265V40.7735L167 35ZM75 35V36H76.9167V35V34H75V35ZM80.75 35V36H84.5833V35V34H80.75V35ZM88.4167 35V36H92.25V35V34H88.4167V35ZM96.0833 35V36H99.9167V35V34H96.0833V35ZM103.75 35V36H107.583V35V34H103.75V35ZM111.417 35V36H115.25V35V34H111.417V35ZM119.083 35V36H122.917V35V34H119.083V35ZM126.75 35V36H130.583V35V34H126.75V35ZM134.417 35V36H138.25V35V34H134.417V35ZM142.083 35V36H145.917V35V34H142.083V35ZM149.75 35V36H153.583V35V34H149.75V35ZM157.417 35V36H161.25V35V34H157.417V35ZM69.6667 35C69.6667 37.9455 72.0545 40.3333 75 40.3333C77.9455 40.3333 80.3333 37.9455 80.3333 35C80.3333 32.0545 77.9455 29.6667 75 29.6667C72.0545 29.6667 69.6667 32.0545 69.6667 35ZM167 35L157 29.2265V40.7735L167 35ZM75 35V36H76.9167V35V34H75V35ZM80.75 35V36H84.5833V35V34H80.75V35ZM88.4167 35V36H92.25V35V34H88.4167V35ZM96.0833 35V36H99.9167V35V34H96.0833V35ZM103.75 35V36H107.583V35V34H103.75V35ZM111.417 35V36H115.25V35V34H111.417V35ZM119.083 35V36H122.917V35V34H119.083V35ZM126.75 35V36H130.583V35V34H126.75V35ZM134.417 35V36H138.25V35V34H134.417V35ZM142.083 35V36H145.917V35V34H142.083V35ZM149.75 35V36H153.583V35V34H149.75V35ZM157.417 35V36H161.25V35V34H157.417V35Z" fill="#A9A9A9"/>
<path d="M340.667 150.5C340.667 153.446 343.054 155.833 346 155.833C348.946 155.833 351.333 153.446 351.333 150.5C351.333 147.554 348.946 145.167 346 145.167C343.054 145.167 340.667 147.554 340.667 150.5ZM465 150.5L455 144.726V156.274L465 150.5ZM346 150.5V151.5H347.983V150.5V149.5H346V150.5ZM351.95 150.5V151.5H355.917V150.5V149.5H351.95V150.5ZM359.883 150.5V151.5H363.85V150.5V149.5H359.883V150.5ZM367.817 150.5V151.5H371.783V150.5V149.5H367.817V150.5ZM375.75 150.5V151.5H379.717V150.5V149.5H375.75V150.5ZM383.683 150.5V151.5H387.65V150.5V149.5H383.683V150.5ZM391.617 150.5V151.5H395.583V150.5V149.5H391.617V150.5ZM399.55 150.5V151.5H403.517V150.5V149.5H399.55V150.5ZM407.483 150.5V151.5H411.45V150.5V149.5H407.483V150.5ZM415.417 150.5V151.5H419.383V150.5V149.5H415.417V150.5ZM423.35 150.5V151.5H427.317V150.5V149.5H423.35V150.5ZM431.283 150.5V151.5H435.25V150.5V149.5H431.283V150.5ZM439.217 150.5V151.5H443.183V150.5V149.5H439.217V150.5ZM447.15 150.5V151.5H451.117V150.5V149.5H447.15V150.5ZM455.083 150.5V151.5H459.05V150.5V149.5H455.083V150.5ZM340.667 150.5C340.667 153.446 343.054 155.833 346 155.833C348.946 155.833 351.333 153.446 351.333 150.5C351.333 147.554 348.946 145.167 346 145.167C343.054 145.167 340.667 147.554 340.667 150.5ZM465 150.5L455 144.726V156.274L465 150.5ZM346 150.5V151.5H347.983V150.5V149.5H346V150.5ZM351.95 150.5V151.5H355.917V150.5V149.5H351.95V150.5ZM359.883 150.5V151.5H363.85V150.5V149.5H359.883V150.5ZM367.817 150.5V151.5H371.783V150.5V149.5H367.817V150.5ZM375.75 150.5V151.5H379.717V150.5V149.5H375.75V150.5ZM383.683 150.5V151.5H387.65V150.5V149.5H383.683V150.5ZM391.617 150.5V151.5H395.583V150.5V149.5H391.617V150.5ZM399.55 150.5V151.5H403.517V150.5V149.5H399.55V150.5ZM407.483 150.5V151.5H411.45V150.5V149.5H407.483V150.5ZM415.417 150.5V151.5H419.383V150.5V149.5H415.417V150.5ZM423.35 150.5V151.5H427.317V150.5V149.5H423.35V150.5ZM431.283 150.5V151.5H435.25V150.5V149.5H431.283V150.5ZM439.217 150.5V151.5H443.183V150.5V149.5H439.217V150.5ZM447.15 150.5V151.5H451.117V150.5V149.5H447.15V150.5ZM455.083 150.5V151.5H459.05V150.5V149.5H455.083V150.5Z" fill="#A9A9A9"/>
<path d="M219.356 98.9223L219.37 97.9215L219.356 98.9223ZM287.665 100.115L287.65 101.115L287.665 100.115ZM198.373 77.7421C199.231 74.9242 202.208 73.3431 205.023 74.2107C207.838 75.0783 209.424 78.066 208.567 80.8839C207.709 83.7018 204.732 85.2828 201.917 84.4152C199.102 83.5476 197.516 80.56 198.373 77.7421ZM306.074 113.061L296.77 106.201L307.328 101.575L306.074 113.061ZM203.47 79.313L204.451 79.5052C204.343 80.0659 204.267 80.6239 204.221 81.1776L203.225 81.0916L202.23 81.0057C202.282 80.3806 202.368 79.7517 202.489 79.1208L203.47 79.313ZM203.32 84.6764L204.31 84.543C204.464 85.6696 204.742 86.7635 205.131 87.8085L204.195 88.1556L203.259 88.5026C202.819 87.3215 202.505 86.0845 202.33 84.8098L203.32 84.6764ZM205.803 91.3634L206.641 90.8217C207.252 91.7687 207.965 92.6477 208.764 93.4417L208.062 94.1515L207.359 94.8614C206.457 93.9655 205.654 92.9737 204.964 91.9052L205.803 91.3634ZM210.865 96.3889L211.397 95.5433C212.338 96.1396 213.349 96.6375 214.418 97.0212L214.084 97.9634L213.75 98.9057C212.54 98.4716 211.396 97.9084 210.332 97.2345L210.865 96.3889ZM217.567 98.7953L217.689 97.8021C218.239 97.8712 218.8 97.9116 219.37 97.9215L219.356 98.9223L219.341 99.9232C218.7 99.912 218.068 99.8665 217.446 99.7885L217.567 98.7953ZM219.356 98.9223L219.37 97.9215L221.268 97.9546L221.253 98.9555L221.239 99.9563L219.341 99.9232L219.356 98.9223ZM225.048 99.0217L225.063 98.0209L228.858 98.0871L228.843 99.0879L228.829 100.089L225.034 100.023L225.048 99.0217ZM232.638 99.1542L232.653 98.1533L236.448 98.2196L236.433 99.2204L236.419 100.221L232.624 100.155L232.638 99.1542ZM240.228 99.2866L240.242 98.2858L244.037 98.352L244.023 99.3529L244.008 100.354L240.214 100.287L240.228 99.2866ZM247.818 99.4191L247.832 98.4183L251.627 98.4845L251.613 99.4853L251.598 100.486L247.803 100.42L247.818 99.4191ZM255.408 99.5516L255.422 98.5507L259.217 98.617L259.203 99.6178L259.188 100.619L255.393 100.552L255.408 99.5516ZM262.998 99.6841L263.012 98.6832L266.807 98.7495L266.792 99.7503L266.778 100.751L262.983 100.685L262.998 99.6841ZM270.587 99.8165L270.602 98.8157L274.397 98.8819L274.382 99.8828L274.368 100.884L270.573 100.817L270.587 99.8165ZM278.177 99.949L278.192 98.9482L281.987 99.0144L281.972 100.015L281.958 101.016L278.163 100.95L278.177 99.949ZM285.767 100.081L285.782 99.0806L287.679 99.1137L287.665 100.115L287.65 101.115L285.753 101.082L285.767 100.081ZM287.665 100.115L287.679 99.1137C288.38 99.126 289.074 99.173 289.76 99.2533L289.647 100.248L289.534 101.242C288.913 101.169 288.285 101.126 287.65 101.115L287.665 100.115ZM293.525 101.099L293.832 100.147C295.163 100.582 296.441 101.146 297.65 101.829L297.161 102.7L296.673 103.572C295.579 102.954 294.422 102.443 293.218 102.05L293.525 101.099ZM300.413 104.987L301.064 104.23C302.115 105.137 303.08 106.15 303.941 107.256L303.154 107.87L302.366 108.484C301.588 107.483 300.715 106.566 299.763 105.745L300.413 104.987ZM219.356 98.9223L219.37 97.9215L219.356 98.9223ZM287.665 100.115L287.65 101.115L287.665 100.115ZM198.373 77.7421C199.231 74.9242 202.208 73.3431 205.023 74.2107C207.838 75.0783 209.424 78.066 208.567 80.8839C207.709 83.7018 204.732 85.2828 201.917 84.4152C199.102 83.5476 197.516 80.56 198.373 77.7421ZM306.074 113.061L296.77 106.201L307.328 101.575L306.074 113.061ZM203.47 79.313L204.451 79.5052C204.343 80.0659 204.267 80.6239 204.221 81.1776L203.225 81.0916L202.23 81.0057C202.282 80.3806 202.368 79.7517 202.489 79.1208L203.47 79.313ZM203.32 84.6764L204.31 84.543C204.464 85.6696 204.742 86.7635 205.131 87.8085L204.195 88.1556L203.259 88.5026C202.819 87.3215 202.505 86.0845 202.33 84.8098L203.32 84.6764ZM205.803 91.3634L206.641 90.8217C207.252 91.7687 207.965 92.6477 208.764 93.4417L208.062 94.1515L207.359 94.8614C206.457 93.9655 205.654 92.9737 204.964 91.9052L205.803 91.3634ZM210.865 96.3889L211.397 95.5433C212.338 96.1396 213.349 96.6375 214.418 97.0212L214.084 97.9634L213.75 98.9057C212.54 98.4716 211.396 97.9084 210.332 97.2345L210.865 96.3889ZM217.567 98.7953L217.689 97.8021C218.239 97.8712 218.8 97.9116 219.37 97.9215L219.356 98.9223L219.341 99.9232C218.7 99.912 218.068 99.8665 217.446 99.7885L217.567 98.7953ZM219.356 98.9223L219.37 97.9215L221.268 97.9546L221.253 98.9555L221.239 99.9563L219.341 99.9232L219.356 98.9223ZM225.048 99.0217L225.063 98.0209L228.858 98.0871L228.843 99.0879L228.829 100.089L225.034 100.023L225.048 99.0217ZM232.638 99.1542L232.653 98.1533L236.448 98.2196L236.433 99.2204L236.419 100.221L232.624 100.155L232.638 99.1542ZM240.228 99.2866L240.242 98.2858L244.037 98.352L244.023 99.3529L244.008 100.354L240.214 100.287L240.228 99.2866ZM247.818 99.4191L247.832 98.4183L251.627 98.4845L251.613 99.4853L251.598 100.486L247.803 100.42L247.818 99.4191ZM255.408 99.5516L255.422 98.5507L259.217 98.617L259.203 99.6178L259.188 100.619L255.393 100.552L255.408 99.5516ZM262.998 99.6841L263.012 98.6832L266.807 98.7495L266.792 99.7503L266.778 100.751L262.983 100.685L262.998 99.6841ZM270.587 99.8165L270.602 98.8157L274.397 98.8819L274.382 99.8828L274.368 100.884L270.573 100.817L270.587 99.8165ZM278.177 99.949L278.192 98.9482L281.987 99.0144L281.972 100.015L281.958 101.016L278.163 100.95L278.177 99.949ZM285.767 100.081L285.782 99.0806L287.679 99.1137L287.665 100.115L287.65 101.115L285.753 101.082L285.767 100.081ZM287.665 100.115L287.679 99.1137C288.38 99.126 289.074 99.173 289.76 99.2533L289.647 100.248L289.534 101.242C288.913 101.169 288.285 101.126 287.65 101.115L287.665 100.115ZM293.525 101.099L293.832 100.147C295.163 100.582 296.441 101.146 297.65 101.829L297.161 102.7L296.673 103.572C295.579 102.954 294.422 102.443 293.218 102.05L293.525 101.099ZM300.413 104.987L301.064 104.23C302.115 105.137 303.08 106.15 303.941 107.256L303.154 107.87L302.366 108.484C301.588 107.483 300.715 106.566 299.763 105.745L300.413 104.987Z" fill="#A9A9A9"/>
</svg>
